<svg width="161" height="157" viewBox="0 0 161 157" fill="none" xmlns="http://www.w3.org/2000/svg">
<path d="M88.3517 40.6374C91.3819 25.4732 106.146 15.5633 121.328 18.503L159.977 25.9865L152.363 64.0891C149.333 79.2533 134.569 89.1632 119.387 86.2236L80.7378 78.74L88.3517 40.6374Z" fill="#F68501"/>
<path d="M42.98 71.4147C27.8084 68.4217 17.9822 53.7057 21.0324 38.5455L28.6882 0.49574L67.3533 8.12347C82.5248 11.1165 92.3511 25.8325 89.3008 40.9927L81.6451 79.0425L42.98 71.4147Z" fill="#008CDB"/>
<path d="M118.305 85.4343C133.524 88.1746 143.598 102.726 140.805 117.935L133.795 156.105L95.0044 149.121C79.7852 146.381 69.7118 131.83 72.5049 116.62L79.5145 78.45L118.305 85.4343Z" fill="#F82C2C"/>
<path d="M9.74706 91.1413C13.4394 76.1246 28.6117 66.9215 43.6353 70.5856L81.9423 79.9281L72.6797 117.599C68.9873 132.615 53.815 141.819 38.7914 138.155L0.484445 128.812L9.74706 91.1413Z" fill="#00A84F"/>
<path d="M83.9384 66.3062L85.5093 78.9233L97.9943 81.3282L86.4801 86.7211L88.051 99.3382L79.364 90.0541L67.8499 95.447L73.9952 84.3162L65.3082 75.0321L77.7932 77.437L83.9384 66.3062Z" fill="white"/>
</svg>
